<svg id="" xmlns="http://www.w3.org/2000/svg" viewBox="0 0 136.5 50.5">
		<path id="beetroot" d="M145.365,24.564a36.08,36.08,0,0,0-9.09,10.35c22.25-7.5,19.895,25.751-.778,21.46a29.153,29.153,0,0,1-4.156,13.64c0.58-4.514,2.5-8.785-1.038-13.892-2.019-2.913-9.825-1.845-12.467-4.8-7.339-8.2.569-21.57,11.948-15.651-1.22-3.867-2.13-11.974.258-16.158,1.771-.123,2.4.862,3.637,1.262,0.54,0.556-.412,1.084-0.262,2.019,0.713-.908,1.167-2.065,1.819-3.029a6.5,6.5,0,0,1,3.378,2.274c-0.653,1.554-1.5,2.912-2.079,4.543,1.963-.953,3.925-4.095,6.753-5.05,1.425,0.3,1.447,1.959,2.077,3.029" transform="translate(-115 -19.5)"/>
		<path id="text" d="M169.794,56.9l0.476,2.315a13.844,13.844,0,0,0,.422,2.242,13.35,13.35,0,0,1,.422,2.334v0.037a1.01,1.01,0,0,1-.736,1.066,3.32,3.32,0,0,1-1.449-.257,1,1,0,0,1-.519-0.992,24.313,24.313,0,0,0-.649-4.65l-4.368-.551a16.319,16.319,0,0,0-.628,2.738,18.231,18.231,0,0,1-.41,2.169,1.546,1.546,0,0,1-1.449,1.4,1.749,1.749,0,0,1-.963-0.285,0.843,0.843,0,0,1-.443-0.726l0.109-.331a139.243,139.243,0,0,0,4.433-19.077q0.043-.257.129-1.507a7.383,7.383,0,0,1,.822-3.51h1.492a2.243,2.243,0,0,1,1.06.239,0.768,0.768,0,0,1,.455.717,59.249,59.249,0,0,0,.9,8.509A58.87,58.87,0,0,1,169.794,56.9Zm-2.314.754a9.659,9.659,0,0,1-.13-1.92q0-1.369-.184-3.4t-0.529-4.723q-0.346-2.693-.476-3.905-2.012,9.465-2.595,13.342A11.951,11.951,0,0,0,167.48,57.659Zm5.559-2.205-0.022-2.205v-0.9a30.9,30.9,0,0,1,.649-7.719,6.872,6.872,0,0,1,2.162-3.713,7.629,7.629,0,0,1,4.758-1.433,1.6,1.6,0,0,1,1.027.276,0.83,0.83,0,0,1,.336.661,1.009,1.009,0,0,1-.271.689,0.93,0.93,0,0,1-.681.322h-2.076a1.909,1.909,0,0,0-1.579.992,7.1,7.1,0,0,0-.952,2.426,21.794,21.794,0,0,0-.541,4.5v0.184l-0.194,7.259a11.6,11.6,0,0,0,.292,3.179,7.8,7.8,0,0,0,.606,1.425,3.128,3.128,0,0,0,.746.891,3.914,3.914,0,0,0,2.552.809,1.529,1.529,0,0,0,.951-0.331,2.079,2.079,0,0,1,.93.2,0.66,0.66,0,0,1,.411.625q0,1.489-2.443,1.489a9.444,9.444,0,0,1-2.088-.248,6.7,6.7,0,0,1-1.632-.542Q173.039,62.676,173.039,55.453ZM194.145,56.9l0.476,2.315a13.844,13.844,0,0,0,.422,2.242,13.35,13.35,0,0,1,.422,2.334v0.037a1.009,1.009,0,0,1-.736,1.066,3.32,3.32,0,0,1-1.449-.257,1,1,0,0,1-.519-0.992,24.313,24.313,0,0,0-.649-4.65l-4.368-.551a16.319,16.319,0,0,0-.628,2.738,18.231,18.231,0,0,1-.41,2.169,1.545,1.545,0,0,1-1.449,1.4,1.749,1.749,0,0,1-.963-0.285,0.843,0.843,0,0,1-.443-0.726l0.109-.331a139.243,139.243,0,0,0,4.433-19.077q0.043-.257.13-1.507a7.374,7.374,0,0,1,.821-3.51h1.492a2.243,2.243,0,0,1,1.06.239,0.768,0.768,0,0,1,.455.717,59.136,59.136,0,0,0,.9,8.509A58.987,58.987,0,0,1,194.145,56.9Zm-2.313.754a9.561,9.561,0,0,1-.131-1.92q0-1.369-.183-3.4t-0.53-4.723q-0.346-2.693-.476-3.905-2.012,9.465-2.595,13.342A11.954,11.954,0,0,0,191.832,57.659Zm6.119,2.187,0.13-11.854q0-1.212-.259-3.7t-0.26-3.17a1.247,1.247,0,0,1,.5-1.056,1.728,1.728,0,0,1,1.06-.377q4.563,0,7.418,4.54A10.065,10.065,0,0,1,208.18,49.7l-0.086,1.894V53.67a20.3,20.3,0,0,1-.4,5.055,13.939,13.939,0,0,1-.833,2.113,6.794,6.794,0,0,1-1.038,1.507,10.349,10.349,0,0,1-3.547,2.426h-3.2Q197.952,64.771,197.951,59.846Zm3.093,2.113v0.9q3.849,0,4.628-6.616a26.191,26.191,0,0,0,.173-2.941q0-11.358-5.147-11.873a20.091,20.091,0,0,0-.325,4.089q0,2.6.335,8.133T201.044,61.959Zm10.38-16.412-0.237-3.18q0-2.665,1.859-2.665a15.574,15.574,0,0,1,3.245.468q2.053,0.469,2.054,1.2,0,0.772-1.3,1.177a20.045,20.045,0,0,0-3.352-.717q0.065,0.809.065,1.618l-0.195,5.4c0,0.025.044,0.22,0.13,0.588l1.579-.055q2.14,0,2.141,1.029a0.883,0.883,0,0,1-.39.708,1.551,1.551,0,0,1-.983.3,12.244,12.244,0,0,1-1.287-.073H213.63q0.131,1.433.13,2.848l-0.195,6.818a9.714,9.714,0,0,0,.087,2.114l3.265-.092q1.688,0,1.687.919a0.862,0.862,0,0,1-.583.827,3.245,3.245,0,0,1-1.32.257h-3.742a1.781,1.781,0,0,1-1.059-.34,1.053,1.053,0,0,1-.5-0.818V62.9l-0.28-6.359Zm25.8,18.617,0.021-4.815q0-1.673-.324-4.907T236.6,50.087q0-1.121.087-2.674t0.086-2.325q-0.2.5-1.492,5.2-3.374,12.167-4.823,12.166a1.94,1.94,0,0,1-1.352-.441,1.512,1.512,0,0,1-.486-1.176,33.688,33.688,0,0,0-1.654-7.342q-1.656-5.559-2.8-8.518-0.843,13.269-.844,17.937l0.065,1.121a1.3,1.3,0,0,1-.3.928,1.256,1.256,0,0,1-.952.322,1.919,1.919,0,0,1-1.06-.267,0.759,0.759,0,0,1-.411-0.634q0-3.841.682-11.5t0.681-11.505a1.276,1.276,0,0,1-.26-0.78,0.716,0.716,0,0,1,.541-0.653,3.068,3.068,0,0,1,1.168-.221q0.951,0,3.763,7.563a97.594,97.594,0,0,1,3.46,10.467q0.195-.552.811-2.785t1.308-4.641q0.693-2.427,1.514-4.889,1.86-5.66,3.158-5.661a2.312,2.312,0,0,1,1.1.276,0.836,0.836,0,0,1,.519.754q0,2.72.281,8.123t0.28,7.847l-0.107,3.97v0.018q0,0.423.259,2.683l0.087,0.735a1.944,1.944,0,0,1,.194.855,1.587,1.587,0,0,1-.411.965,1.317,1.317,0,0,1-1.081.515Q237.225,66.517,237.224,64.164Zm11.7-1.617q0,2.518-1.45,2.518a1.343,1.343,0,0,1-1.232-.827q0.5-.827.5-6.377a24.144,24.144,0,0,0-.238-2.867q-0.237-1.857-.281-2.646V51.373q-0.085-.166-1.384-2.977-2.942-6.3-2.941-7.517v-0.2l0.994-.624q1.363,0.018,3.244,5.826,0.823,2.536.822,2.555a27.453,27.453,0,0,0,.692-2.812q1.319-6.1,2.768-6.1a1.329,1.329,0,0,1,.746.221,0.66,0.66,0,0,1,.336.57,18.017,18.017,0,0,1-1.265,5.449,19.306,19.306,0,0,0-1.308,5.449v11.34ZM159.955,24.9l-0.117-.958v-0.1a1.135,1.135,0,0,1,.144-0.615,0.849,0.849,0,0,1,.733-0.226,2.71,2.71,0,0,1,1.155.262,2.224,2.224,0,0,1,.893.723,3.442,3.442,0,0,1,.649,2.061,6.6,6.6,0,0,1-.2,1.83,3.56,3.56,0,0,1-.681,1.252,3.138,3.138,0,0,1,.979,2.287c0.014,0.241.022,0.53,0.027,0.868a4.523,4.523,0,0,1-.1.994,3.43,3.43,0,0,1-.351.931,2.869,2.869,0,0,1-2.754,1.473,0.552,0.552,0,0,1-.585-0.343,2.263,2.263,0,0,1-.1-0.633l0.213-3.941Zm0.926,8.921,0.021,0.09v0.832a1.6,1.6,0,0,0,1.1-.736,2.126,2.126,0,0,0,.367-1.1c0-.34,0-0.61-0.017-0.809a5.415,5.415,0,0,0-.1-0.732,4.451,4.451,0,0,0-.213-0.759,1.317,1.317,0,0,0-.989-0.913q-0.1,1.193-.1,2.8Zm0.138-7.972v2.757q1.149-.028,1.149-2.341t-0.894-2.4A4.929,4.929,0,0,0,161.019,25.854Zm4.073,0.307L164.975,24.6q0-1.311.915-1.311a7.635,7.635,0,0,1,1.6.23q1.011,0.231,1.011.592a0.708,0.708,0,0,1-.638.578,9.852,9.852,0,0,0-1.649-.352q0.031,0.4.032,0.8l-0.1,2.657c0,0.012.022,0.109,0.064,0.289l0.777-.027q1.053,0,1.053.506a0.433,0.433,0,0,1-.192.348,0.763,0.763,0,0,1-.484.149,6,6,0,0,1-.633-0.036h-0.553q0.065,0.705.064,1.4l-0.1,3.353a4.806,4.806,0,0,0,.043,1.039l1.606-.045q0.829,0,.83.452a0.424,0.424,0,0,1-.288.407,1.592,1.592,0,0,1-.648.126h-1.84a0.878,0.878,0,0,1-.522-0.167,0.516,0.516,0,0,1-.244-0.4V34.694l-0.138-3.127Zm4.84,0L169.815,24.6q0-1.311.914-1.311a7.651,7.651,0,0,1,1.6.23q1.01,0.231,1.01.592a0.707,0.707,0,0,1-.638.578,9.852,9.852,0,0,0-1.649-.352c0.022,0.265.032,0.53,0.032,0.8l-0.095,2.657q0,0.018.063,0.289l0.777-.027q1.053,0,1.053.506a0.433,0.433,0,0,1-.192.348,0.761,0.761,0,0,1-.484.149,5.977,5.977,0,0,1-.632-0.036h-0.553q0.063,0.705.063,1.4l-0.095,3.353a4.861,4.861,0,0,0,.042,1.039l1.606-.045q0.829,0,.83.452a0.424,0.424,0,0,1-.287.407,1.6,1.6,0,0,1-.649.126h-1.84a0.875,0.875,0,0,1-.521-0.167,0.518,0.518,0,0,1-.245-0.4V34.694l-0.138-3.127Zm6.658,9.047-0.043-1.419q0-.009.032-0.633-0.086-.235-0.346-4.176t-0.281-4.817h-0.085q-1.767-.028-1.766-0.551a0.334,0.334,0,0,1,.234-0.285,1.044,1.044,0,0,1,.457-0.113l2.957,0.172,0.351-.009q0.681,0,.681.443a0.419,0.419,0,0,1-.224.366,0.919,0.919,0,0,1-.5.14l-1-.126-0.043.19q0,1.753.362,5.251t0.361,5.261a0.473,0.473,0,0,1-.234.384,0.855,0.855,0,0,1-.51.167Zm4.275-5.9-0.021,2.007a14.2,14.2,0,0,0,.415,3.859l-0.245.5h-0.606l-0.287-.271q0.021-.831.021-1.867t-0.186-4.424q-0.186-3.39-.186-5.062a0.715,0.715,0,0,1,.723-0.877,3.439,3.439,0,0,1,1.915.506,1.628,1.628,0,0,1,.776,1.446v1.3a2.031,2.031,0,0,1-.234.972q-0.234.439-.542,0.922c-0.206.322-.319,0.5-0.341,0.538q0.117,0.452.415,1.772a14.343,14.343,0,0,0,1.415,4.149,1.209,1.209,0,0,1,.223.565,0.482,0.482,0,0,1-.133.343,0.467,0.467,0,0,1-.356.14,1.219,1.219,0,0,1-.878-0.89,9.959,9.959,0,0,1-.675-1.975,36.783,36.783,0,0,0-.947-3.652h-0.266Zm0.085-5.45-0.074.262q0,0.759.043,2.192t0.042,2.083a1.821,1.821,0,0,0,.825-1.18,5.153,5.153,0,0,0,.313-1.46,6.083,6.083,0,0,0-.032-0.746,2.489,2.489,0,0,0-.138-0.529A0.961,0.961,0,0,0,180.95,23.856Zm3.946,5.993,0.022-.705c0-.06-0.011-0.09-0.032-0.09V28.719a15.187,15.187,0,0,1,.393-4.14,2.924,2.924,0,0,1,.638-1.283,0.982,0.982,0,0,1,.607-0.244,3.489,3.489,0,0,1,3.488,2.169,7.572,7.572,0,0,1,.553,3.073V28.43l0.043,2.1q0,5.324-2.9,5.324a2.01,2.01,0,0,1-1.84-1.13,5.979,5.979,0,0,1-.744-2.133A19.965,19.965,0,0,1,184.9,29.849Zm1.287-2.531-0.106,1.708a19.066,19.066,0,0,0,.51,4.682,2.7,2.7,0,0,0,1.032,1.374,1.076,1.076,0,0,0,.713-0.272,1.856,1.856,0,0,0,.5-0.727,7.218,7.218,0,0,0,.314-0.963,9.163,9.163,0,0,0,.181-1.066,16.272,16.272,0,0,0,.106-1.681q0-.7-0.143-2.133T189.151,26.1V25.772a1.8,1.8,0,0,0-.521-1.207,1.682,1.682,0,0,0-1.277-.529,0.963,0.963,0,0,0-.989.714,4.632,4.632,0,0,0-.2,1.473Zm5.637,2.531,0.022-.705c0-.06-0.011-0.09-0.032-0.09V28.719a15.187,15.187,0,0,1,.393-4.14,2.924,2.924,0,0,1,.638-1.283,0.982,0.982,0,0,1,.607-0.244,3.489,3.489,0,0,1,3.488,2.169,7.572,7.572,0,0,1,.553,3.073V28.43l0.043,2.1q0,5.324-2.9,5.324a2.01,2.01,0,0,1-1.84-1.13,5.979,5.979,0,0,1-.744-2.133A19.965,19.965,0,0,1,191.82,29.849Zm1.287-2.531L193,29.026a19.066,19.066,0,0,0,.51,4.682,2.7,2.7,0,0,0,1.032,1.374,1.076,1.076,0,0,0,.713-0.272,1.867,1.867,0,0,0,.5-0.727,7.218,7.218,0,0,0,.314-0.963,8.961,8.961,0,0,0,.18-1.066,16.029,16.029,0,0,0,.107-1.681q0-.7-0.143-2.133T196.075,26.1V25.772a1.8,1.8,0,0,0-.521-1.207,1.682,1.682,0,0,0-1.277-.529,0.963,0.963,0,0,0-.989.714,4.632,4.632,0,0,0-.2,1.473Zm7.828,7.89-0.042-1.419c0-.006.01-0.217,0.032-0.633q-0.086-.235-0.346-4.176T200.3,24.164h-0.085q-1.765-.028-1.766-0.551a0.334,0.334,0,0,1,.234-0.285,1.048,1.048,0,0,1,.458-0.113l2.957,0.172,0.351-.009q0.679,0,.68.443a0.418,0.418,0,0,1-.223.366,0.921,0.921,0,0,1-.5.14l-1-.126-0.042.19q0,1.753.361,5.251t0.362,5.261a0.473,0.473,0,0,1-.234.384,0.858,0.858,0,0,1-.511.167Z" transform="translate(-115 -19.5)"/>
	</svg>